# xmcd
#
# Track frame offsets:
#	150
#	16999
#	31666
#	67621
#	91785
#	104310
#	122079
#	138844
#	154781
#	167890
#	186765
#	209124
#	234866
#	249338
#	262455
#	273197
#	291952
#	308211
#
# Disc length: 4385 seconds
#
# Revision: 1
# Processed by: cddbd v1.5.2PL0 Copyright (c) Steve Scherf et al.
# Submitted via: audiograbber 1.83.01
#
DISCID=f4111f12
DTITLE=Fleetwood Mac - The Chain CD2
DYEAR=1900
DGENRE=Bluesrock
TTITLE0=Don't stop
TTITLE1=Everywhere
TTITLE2=Tusk
TTITLE3=Not that funny
TTITLE4=Beautiful Child
TTITLE5=Teen Beat
TTITLE6=Need your Love so bad
TTITLE7=Did you ever love me
TTITLE8=Oh well Part I
TTITLE9=I believe my time ain't long
TTITLE10=Bermuda Triangle
TTITLE11=Why
TTITLE12=Station Man
TTITLE13=Albatros
TTITLE14=Black Magic Woman
TTITLE15=Stop messin' around
TTITLE16=Trinity
TTITLE17=Hotels are hard to find
EXTD=
EXTT0=
EXTT1=
EXTT2=
EXTT3=
EXTT4=
EXTT5=
EXTT6=
EXTT7=
EXTT8=
EXTT9=
EXTT10=
EXTT11=
EXTT12=
EXTT13=
EXTT14=
EXTT15=
EXTT16=
EXTT17=
PLAYORDER=
